<?xml version="1.0" encoding="utf-8"?>
<!-- Generator: Adobe Illustrator 24.2.1, SVG Export Plug-In . SVG Version: 6.00 Build 0)  -->
<svg version="1.1" id="Calque_1" xmlns="http://www.w3.org/2000/svg" xmlns:xlink="http://www.w3.org/1999/xlink" x="0px" y="0px"
	 viewBox="0 0 41 72" style="enable-background:new 0 0 41 72;" xml:space="preserve">
<style type="text/css">
	.st0{fill:#FF6C40;}
</style>
<path class="st0" d="M25.4,32.5L1.5,8.6C0.6,7.6,0,6.4,0,5c0-1.3,0.5-2.6,1.5-3.5C2.4,0.6,3.7,0,5,0c1.3,0,2.6,0.5,3.5,1.5L36,28.9
	l3.5,3.5c0.9,0.9,1.5,2.2,1.5,3.5c0,1.3-0.5,2.6-1.5,3.5L36,43.1L8.6,70.5C7.6,71.4,6.3,72,5,72c-1.3,0-2.6-0.5-3.5-1.5
	C0.6,69.6,0,68.3,0,67c0-1.3,0.5-2.6,1.5-3.5l23.9-23.9c0.9-0.9,1.5-2.2,1.5-3.5C26.9,34.7,26.3,33.4,25.4,32.5z"/>
</svg>
