<svg xmlns="http://www.w3.org/2000/svg" x="0px" y="0px"
	 style="fill: white;" viewBox="0 0 297 297" xml:space="preserve">
<path d="M269.4,105.6h-31.8v-51c0-17.4-14.1-31.5-31.5-31.5H31.5C14.1,23.1,0,37.2,0,54.6V150
	c0,17.4,14.1,31.5,31.5,31.5h22.9v33c0,4,2.4,7.6,6.1,9.2c1.2,0.5,2.5,0.8,3.8,0.8c2.6,0,5.1-1,7-2.9L99,193.9v17.3
	c0,15.2,12.4,27.6,27.6,27.6h76.8l32.2,32.2c1.9,1.9,4.4,2.9,7,2.9c1.3,0,2.6-0.2,3.8-0.8c3.7-1.5,6.1-5.1,6.1-9.2v-25.2h17
	c15.2,0,27.6-12.4,27.6-27.6v-78.1C297,118,284.6,105.6,269.4,105.6z M64.4,161.7H31.5c-6.4,0-11.7-5.2-11.7-11.7V54.6
	c0-6.4,5.2-11.7,11.7-11.7h174.6c6.4,0,11.7,5.2,11.7,11.7V150c0,6.4-5.2,11.7-11.7,11.7h-98.8c-2.6,0-5.2,1-7,2.9l-26,26v-19
	C74.3,166.1,69.8,161.7,64.4,161.7z M277.2,211.2c0,4.3-3.5,7.8-7.8,7.8h-26.9c-5.5,0-9.9,4.4-9.9,9.9v11.2l-18.2-18.2
	c-1.9-1.9-4.4-2.9-7-2.9h-80.9c-4.3,0-7.8-3.5-7.8-7.8v-29.7h87.3c17.4,0,31.5-14.1,31.5-31.5v-24.6h31.8c4.3,0,7.8,3.5,7.8,7.8
	V211.2z"/>
</svg>
