<svg xmlns="http://www.w3.org/2000/svg" viewBox="0 0 452.3 509.6">
  <path d="M491.5,277.7c-41.3-21.3-78.4-48.1-113.1-78.8q-71.2-63-145.9-4.9c-38.8,30.1-79.2,57.4-122.7,80.2-48.1,25.2-50.5,53.9-7.6,86.2,28,21,32,46.4,11.9,74.6s-16.6,60,11.1,75.5c20.3,11.3,26.9,27.2,33.6,46.1a211.2,211.2,0,0,0,16.7,36.5c27.6,47.6,66.1,79.3,126,82.6,7.3-1.4,16.9-2.4,26-5,62-17.4,93-64.6,113.5-120.7,5.7-15.6,10.8-27.9,27.3-36.9,28.6-15.8,34.2-48.3,16.9-74.5-23.3-35.5-20.1-55.3,13.1-80.8C534.7,329.8,532.6,298.8,491.5,277.7ZM445.8,487.1c-23.8,4.2-27.1,19.9-32,37.8-8.5,30.8-22.8,59-45.2,82.3-19.3,20-42.3,32.9-71.1,33.3-26.2-.8-47.7-12.4-66.2-30.4-23.3-22.7-37.7-50.7-47.2-81.2-5.9-19.2-7.9-38.2-34.5-42.5-12.9-2-18.5-18.8-8.6-30.3,7.7-8.8,12.3-26,34.5-12.6,80.5,48.4,164.1,49.4,244.8.7,21.4-13,27,1.9,34.9,10.9C466.4,468,460.3,484.6,445.8,487.1Zm29.7-154.8c-17.3,13.9-34.7,20.8-57.5,19.8-40.3-1.8-80.7-.5-121-.5H170.2c-5.8,0-12,1.2-17.2-.4-17.8-5.7-36.8-16.6-42.1-31.5-4.5-12.4,19.1-16.4,30.6-23A841,841,0,0,0,251.2,223c37.6-29.9,67.1-29.8,103.2,1.2s75.4,62.4,120.2,83.2C492.9,315.9,488.6,321.9,475.5,332.3Z" transform="translate(-71.8 -166.1)"/>
  <path d="M290.5,236.8c-14.1-3.7-33.2-5.2-26.7,18.7.1,22.5,21.1,57,33.8,58.1s35-34.7,35.7-56.7C334.5,217.7,305.4,240.6,290.5,236.8Z" transform="translate(-71.8 -166.1)"/>
</svg>
