<?xml version="1.0" encoding="utf-8"?>
<!-- Generator: Adobe Illustrator 24.2.1, SVG Export Plug-In . SVG Version: 6.00 Build 0)  -->
<svg version="1.1" xmlns="http://www.w3.org/2000/svg" xmlns:xlink="http://www.w3.org/1999/xlink" x="0px" y="0px"
	 viewBox="0 0 243.6 242.3" style="enable-background:new 0 0 243.6 242.3;" xml:space="preserve">
<style type="text/css">
	.st0{fill:#3B5285;}
	.st1{fill:#FF6C40;}
	.st2{fill:#FFFFFF;}
</style>
<g id="Calque_1">
	<path class="st0" d="M226.6,242.3H16.7c-9.4,0-16.9-7.6-16.9-16.9V17c0-9.4,7.6-16.9,16.9-16.9h209.9c9.4,0,16.9,7.6,16.9,16.9
		v208.3C243.6,234.7,236,242.3,226.6,242.3z"/>
</g>
<g id="Calque_2">
	<path class="st1" d="M204.2,139.8H74.1v28.6h130.1V139.8z"/>
	<path class="st2" d="M26.2,70.4v-4.9H12.8v44.1h13.4v-4.9h-3.5V89.9h3.5V85h-3.5V70.4H26.2z M42.8,77.7v-2.4c0-2.6-1.1-5.1-3-6.9
		c-1.9-1.9-4.4-2.9-7-2.9h-4.3v4.9c1,0.2,2,0.6,2.7,1.4c0.5,0.5,0.9,1,1.1,1.6s0.4,1.2,0.4,1.9v4.9c0,1.2-0.5,2.3-1.2,3.2
		c-0.8,0.9-1.9,1.5-3,1.7V90c2.9,0.2,4.3,1.9,4.3,4.9v4.9c0,0.6-0.1,1.3-0.4,1.9c-0.2,0.6-0.6,1.1-1.1,1.6c-0.8,0.8-1.7,1.2-2.7,1.4
		v4.9h4.3c2.6-0.1,5.2-1,7-2.9c1.9-1.8,2.9-4.3,3-6.9v-2.5c0.1-2.5-0.9-4.9-2.5-6.8c-1.7-2-4.2-3-7.5-3c3.3-0.4,5.8-1.4,7.5-3
		C42,82.8,42.8,80.5,42.8,77.7z"/>
	<path class="st2" d="M119.3,84.2c1.5-1.8,2.3-4,2.3-6.3v-2.6c0-2.6-1.1-5.1-3-6.9s-4.4-2.9-7-2.9h-20v44.1h10V89.9h5.1
		c1.3,0,2.6,0.5,3.6,1.5c0.9,0.9,1.5,2.2,1.5,3.5v14.7h10V92.2c0-1.3-0.5-2.6-1.5-3.5c-0.9-0.9-2.2-1.5-3.6-1.5h-4.9
		C115.2,87.3,117.8,86.3,119.3,84.2z M111.6,80.1c0,1.3-0.6,2.6-1.5,3.4c-0.9,0.9-2.2,1.5-3.6,1.5h-5V70.4h5.1
		c0.6,0,1.3,0.1,1.9,0.3c0.6,0.2,1.2,0.6,1.6,1s0.9,1,1.1,1.6c0.2,0.6,0.4,1.2,0.4,1.9L111.6,80.1z"/>
	<path class="st2" d="M187.7,70.4v-4.9h-25v44.1h25v-4.9h-15V89.9h10V85h-10V70.4H187.7z"/>
	<path class="st2" d="M225.4,84.2c1.5-1.8,2.3-4,2.3-6.3v-2.6c0-2.6-1.1-5.1-3-6.9c-1.9-1.8-4.4-2.9-7-2.9H210v4.9h2.7
		c0.6,0,1.3,0.1,1.9,0.3c0.6,0.2,1.2,0.6,1.6,1s0.9,1,1.1,1.6c0.2,0.6,0.4,1.2,0.3,1.9v4.9c0,1.3-0.5,2.6-1.5,3.4
		c-0.9,0.9-2.2,1.5-3.6,1.5h-2.7V90h2.7c1.3,0,2.6,0.5,3.6,1.5s1.5,2.2,1.5,3.5v14.7h10V92.2c0-1.3-0.5-2.6-1.5-3.5
		c-0.9-0.9-2.2-1.5-3.6-1.5h-4.9C221.3,87.3,223.9,86.3,225.4,84.2z M197.7,65.5v44.1h10V65.5H197.7z"/>
	<path class="st2" d="M55.4,68.6c-1.7,1.8-2.6,4.1-2.6,6.6V98h-0.1v63.5c0,0.6-0.1,1.3-0.3,1.9c-0.2,0.6-0.6,1.1-1.1,1.6
		c-0.9,0.9-2.2,1.5-3.6,1.5c-1.3,0-2.6-0.5-3.6-1.5c-0.5-0.5-0.9-1-1.1-1.6c-0.2-0.6-0.4-1.2-0.3-1.9v-9.8h-10v9.8
		c0,3.3,0.8,5.7,2.5,7.3c1.7,1.6,4.2,2.4,7.5,2.4h10c3.3,0,5.8-0.8,7.5-2.4c0.7-0.7,1.3-1.6,1.7-2.5c0.6-1.5,0.9-3.1,0.8-4.8v-51.9
		h0.1V65.5c-0.3,0-0.6,0-0.9,0C59.4,65.7,57.1,66.8,55.4,68.6z"/>
	<path class="st2" d="M82,71.5c-0.5-1.2-1.2-2.3-2.2-3.2c-0.9-0.9-2-1.7-3.2-2.2c-1.2-0.5-2.5-0.8-3.8-0.8h-8.2v6.1
		c0.9-0.8,2.2-1.2,3.4-1.1c1.2,0.1,2.4,0.6,3.3,1.5c0.5,0.5,0.9,1,1.1,1.6c0.2,0.6,0.4,1.2,0.3,1.9v9.8h-8.2V90h8.2v19.6h10V75.2
		C82.7,74,82.5,72.7,82,71.5z"/>
	<path class="st2" d="M81.1,133.5c0.6-0.6,1.5-1.1,2.3-1.3v-5.1h-3.8c-2.6,0-5.2,1-7,2.9c-1.9,1.8-2.9,4.3-3,6.9v34.4h10v-19.6h3.8
		v-4.9h-3.8V137c0-0.6,0.1-1.3,0.3-1.9C80.3,134.5,80.7,133.9,81.1,133.5z M96.8,130c-0.9-0.9-2-1.7-3.2-2.2s-2.5-0.8-3.8-0.8h-3.9
		v5.1c0.9,0.2,1.7,0.6,2.4,1.3c0.5,0.5,0.9,1,1.1,1.6c0.2,0.6,0.4,1.2,0.4,1.9v9.8h-4v4.9h3.9v19.6h10V137c0-1.3-0.2-2.6-0.8-3.7
		C98.4,132,97.7,130.9,96.8,130L96.8,130z"/>
	<path class="st2" d="M111.6,127.1v44.1h10v-44.1C121.6,127.1,111.6,127.1,111.6,127.1z"/>
	<polygon class="st2" points="123.5,70.4 133.5,70.4 133.5,109.6 133.5,109.6 133.5,171.3 143.5,171.3 143.5,109.6 143.5,106.6 
		143.5,65.5 123.5,65.5 	"/>
	<rect x="145.4" y="65.5" class="st2" width="8.1" height="4.9"/>
	<rect x="145.4" y="166.3" class="st2" width="13.2" height="4.9"/>
	<path class="st2" d="M162.8,127.1v44.1h10v-44.1C172.8,127.1,162.8,127.1,162.8,127.1z M175.1,146.7v4.9h7.7v-4.9H175.1z
		 M175.1,127.1v4.9h12.7v-4.9H175.1z M175.1,166.3v4.9h12.7v-4.9H175.1z"/>
	<path class="st2" d="M225.1,145.9c1.5-1.8,2.3-4,2.3-6.3v-2.7c0-2.6-1.1-5.1-3-6.9c-1.9-1.8-4.4-2.9-7-2.9h-20v44.1h10v-19.6h5
		c1.3,0,2.6,0.5,3.6,1.5s1.5,2.2,1.5,3.5v14.7h10v-17.5c0-1.3-0.5-2.6-1.5-3.5s-2.2-1.5-3.6-1.5h-4.9
		C221.1,149,223.6,147.9,225.1,145.9z M217.4,141.8c0,1.3-0.5,2.6-1.5,3.4c-0.9,0.9-2.2,1.5-3.6,1.5h-5V132h5c0.6,0,1.3,0.1,1.9,0.3
		c0.6,0.2,1.2,0.6,1.6,1c0.5,0.5,0.9,1,1.1,1.6c0.2,0.6,0.4,1.2,0.3,1.9L217.4,141.8L217.4,141.8z"/>
</g>
</svg>
