<svg xmlns="http://www.w3.org/2000/svg" viewBox="0 0 87.1 81">
  <path d="M319.2,460.9c-10.6,0-19.7-6.4-22.4-15.8s1.4-17.2,10.6-23.1a6.4,6.4,0,0,0,2.5-4.6c.5-5.8,1-6.5,6.9-6.5,1.7,0,3.3.1,5,0,4.5-.4,6.3,1.6,6.3,6.1a7,7,0,0,0,2.6,5c9.1,6,13.1,14.3,10.5,23.2S329.6,460.8,319.2,460.9Zm-.6-6c9.2.2,17.1-6.4,17.4-14.4s-7.3-15-16.6-15.3-17.1,6.4-17.4,14.5S309.3,454.7,318.6,454.9Zm4.4-37.3c-1.9-1.2-3.1-2.6-4.1-2.4s-1.9,1.7-2.8,2.7c1.1.9,2.1,2.5,3.3,2.7S321.3,419,323,417.6Z" transform="translate(-254.9 -379.9)" />
  <path d="M254.9,409.1c1.2-13.5,10.9-22.8,23.6-19.5,3.4.8,5.9,1,8.2-2s4.9-2.5,7.3-.1,2.9,2.9,4.3,4.3c4,4,3.9,5.1.1,9.5a6.2,6.2,0,0,0-1.5,4.6c2.4,11.9-1,20.8-9.9,25s-21.2,1.4-27.6-7.6C256.4,419.1,254.9,416.3,254.9,409.1Zm37.1,3.8c-.1-9.4-8.6-17.9-17.9-18s-14.2,6-14.1,14.2,8.9,17.9,18.2,17.8A13.6,13.6,0,0,0,292,412.9Zm0-13.7c1.2-2,2.6-3.3,2.4-4.2s-1.8-1.8-2.9-2.7c-.8,1-2.3,2-2.4,3.1S290.6,397.4,292,399.2Z" transform="translate(-254.9 -379.9)" />
  <path d="M315,379.9c1.3,1.8,2.9,3,2.7,3.8s-1.9,2.1-2.9,3.1c-.9-1-2.4-2-2.5-3S313.7,381.7,315,379.9Z" transform="translate(-254.9 -379.9)" />
  <path d="M303,389.9c-1.3-1.8-2.9-3.1-2.7-3.9s1.9-2,3-3c.8,1,2.3,2,2.4,3.1S304.3,388.1,303,389.9Z" transform="translate(-254.9 -379.9)" />
  <path d="M323,394.2c-1.9,1.2-3.3,2.7-4,2.4s-1.9-2.1-2.9-3.2c1.1-.8,2.2-2.2,3.2-2.2S321.3,392.8,323,394.2Z" transform="translate(-254.9 -379.9)" />
  <path d="M323,403.6c-1.7,1.4-2.8,3.1-3.6,3s-2.2-1.8-3.3-2.8c1-.9,1.8-2.5,2.8-2.6S321.1,402.4,323,403.6Z" transform="translate(-254.9 -379.9)" />
</svg>
