<svg xmlns="http://www.w3.org/2000/svg" viewBox="0 0 479.9 569.9">
  <path d="M58.2,421.8c0-68.6-.3-137.2.1-205.8.3-55,25.2-79.6,80.6-79.8q159-.4,318.1,0c55.5.2,80.5,24.8,80.7,79.7q.4,205.8-.1,411.7c-.2,52.5-25.7,77.7-78.7,77.9q-160.8.8-321.8,0c-53-.2-78.3-25.3-78.8-77.8C57.8,559.1,58.2,490.4,58.2,421.8ZM491,378.4H323.4V479H491ZM210.4,181.8V328.2h62.1V181.8ZM385.6,330.3V183.8H323.4V330.3Zm-113.1,329V527.8H210.4V659.3ZM386.1,527.9H322.9V657.8h63.2ZM161.3,329.2V184.6c-44.5-5.9-56-2.8-57.2,20.5-2.1,41.5-.6,83.2-.6,124.1Zm331.5,0c0-33.5.1-65.4,0-97.2-.1-51.2-3.1-53.8-57.2-48.2V329.2Zm-331.9,330V528.3H103.1c0,28.2,0,54.1.1,79.9C103.2,660.8,104.7,662.2,160.9,659.2ZM434.8,527.5V660.1c24.7-1.8,55,11.7,57.5-28,2.1-34.2.4-68.6.4-104.6ZM273.6,378.2h-63v99.6h63ZM161.1,479.1V378.3H105.8V479.1Z" transform="translate(-58 -135.9)" />
  <circle cx="386.4" cy="292.1" r="25.7"/>
</svg>
