<svg xmlns="http://www.w3.org/2000/svg" viewBox="0 0 80.1 78.2">
  <path d="M336.3,420.2a10,10,0,0,0-5.7-4.6c-2.3-.8-4.8-2.3-7.1-2.1-6.1.5-5.7-3-5.6-7.2s.9-3.6,3.6-3.4,7.4,0,11,0c1.9,0,3.3-.9,3.4-2.9s-1.3-3-3.2-3h-6c-5.2,0-8.7-3.6-8.7-8.9v-3.5c0-1.9-.8-3.3-2.8-3.5s-3.2,1.4-3.2,3.6-.1,6.3,0,9.5-.3,2.9-2.6,2.9c-6.4-.2-12.7-.1-19-.1a2.7,2.7,0,0,1-2.5-.9c-2.6-3.2-4.9-6.3-3.9-10.9.4-2.1-.5-4.1-3.2-4s-2.7,1.9-2.8,3.9c-.3,3.9,1.9,9.4-.9,11.3s-7.9.6-12.1.6c-2.2,0-4.7-.1-4.8,2.9s2.3,3.1,4.6,3.1c4.1.1,8-.6,11.6,3.6,1.8,2.1,1.5,3.6,1.5,5.3s-2.2.8-3.4,1.1c-2.8,1-5.8,1.5-8.6,2.5-5.1,1.7-7.7,5.4-7.8,10.9s-.1,8.3,0,12.5c.1,9.6,6.1,15.8,15.8,16,1.3.1,3.5-.2,3.8.4,3,6.8,5,3.7,7-.5.2-.5,1.2-.6,1.8-.9,3.8-1.7,5.8-4.8,6.5-8.8s1.8-8.4,2.6-12.7c1.1-6-2.1-11.6-8.1-12.9-2.8-.7-3.6-1.5-3.6-4.4.1-12.1,0-12.1,12-12.1h9.5a3.1,3.1,0,0,1,2.6.7c3.8,3.3,4.5,7.5,4,12.3-.1,1.8-.2,2.9-2.5,3.1a10.1,10.1,0,0,0-7.4,4.6c-3.7,5.4.1,25.4,5.6,29.1,2,1.3,4.1,2,5.1,4.8a2.4,2.4,0,0,0,4.4-.1c1-3.3,3.1-2.7,5.3-2.7a14.7,14.7,0,0,0,12.5-6.2C338.5,443.9,339.3,425.2,336.3,420.2ZM285,425c3.7.1,5.3,2.6,4.7,6.2s-1.8,8.7-2.6,13.1a5.5,5.5,0,0,1-3.3,4.2c-10.5,4.6-19.7-1.3-19.7-12.6v-7.5a9.9,9.9,0,0,1,11.2-9.4c.7.1,1.9.7,2,1.2C278,424.9,281.3,424.9,285,425Zm46.9,14.8c-.3,5.4-3.7,8.9-9.2,9-13.5.1-12.7,1.4-15.2-11.7-.3-1.8-.8-3.5-1.1-5.3-.8-4.3,1-6.8,5.4-6.9s6-.1,6.6-4.2c.1-1.1,1.4-1.7,2.7-1.7,6.6-.3,10.8,3.7,10.8,10.3v4C331.9,435.5,332,437.6,331.9,439.8Z" transform="translate(-258 -381)" />
</svg>
