<svg xmlns="http://www.w3.org/2000/svg" viewBox="0 0 508.9 510.3">
  <path d="M43.7,418.4c0-55.4-.4-110.8.1-166.2s31.3-85.6,85.3-86q120.3-.9,240.5,0c43.7.3,75.5,24.6,83,62.3,2.9,14.5,3.7,30.2-14,35.1s-24.7-6.7-27.4-23.2c-3.9-23.9-20.2-32.2-43.2-32q-118.5.4-237,0c-31-.2-45.1,14-45,45q.6,168,0,336c0,29,13.2,43.8,42.6,43.8q120.3-.2,240.5,0c23.3.1,38.7-9.3,42.3-33.2,2.2-15.1,9.2-25.5,25-22.6,18.2,3.3,19.1,18.3,16.7,33.4-5.7,35.1-36.2,63.6-74.1,64.2q-129,1.9-258.1.1c-45.5-.7-76.1-33.4-76.9-79.9C43,536.3,43.7,477.4,43.7,418.4Z" transform="translate(-43.5 -165.8)" style="fill: #fff"/>
  <path d="M482,442.1H258.9c-20,0-40,.4-60-.2-16.7-.4-40,5.6-40.9-20.3s22.2-21.8,39.2-21.9c31.8-.4,63.6-.1,95.3-.1H472l5.8-6.8c-18.2-16.8-36.7-33.5-54.6-50.7-9.8-9.4-17.6-20.6-6-33.6,13-14.7,25.3-7.2,36.2,3.5,29.3,28.9,58,58.4,87.5,87.2,14.5,14.2,15.8,27.5.9,42.3-30.1,29.7-59.8,59.9-90,89.6-10,9.9-21.5,15.6-33.7,3.3s-6.1-23.8,3.9-33.7C439.4,483.2,457.3,466.2,482,442.1Z" transform="translate(-43.5 -165.8)" style="fill: #fff"/>
</svg>
