<svg width="378" height="190" viewBox="0 0 378 190" fill="none" xmlns="http://www.w3.org/2000/svg">
<g clip-path="url(#clip0_382_756)">
<path d="M87.6287 0V71.7146L70.119 51.4359V17.4908C70.1445 13.1194 71.7972 8.91384 74.7557 5.69269C77.7142 2.47154 81.7668 0.465236 86.1245 0.0642762C86.6232 0.0160702 87.13 0 87.6287 0Z" fill="#1F294E"/>
<path d="M338.9 132.776H110.72V183.826H338.9V132.776Z" fill="#FF6C40"/>
<path d="M23.5901 8.78958V0H-0.00012207V78.833H23.5901V70.0434H17.5095V43.7631H23.5901V35.0619H17.5095V8.78958H23.5901ZM52.6174 21.9257V17.4908C52.5816 12.8616 50.7243 8.43228 47.4466 5.15961C44.1689 1.88694 39.7339 0.0336218 35.0997 0H27.6599V8.88599C29.4948 9.16012 31.1896 10.0264 32.4857 11.3525C33.3213 12.1401 33.9843 13.0922 34.4328 14.1488C34.8814 15.2053 35.1057 16.3433 35.0916 17.4908V26.2804C35.0615 28.3679 34.3011 30.3791 32.9422 31.9654C31.5834 33.5517 29.7119 34.6131 27.6518 34.9655V43.8033C32.6171 44.2318 35.097 47.1402 35.0916 52.5286V61.3423C35.1009 62.4855 34.8743 63.6184 34.426 64.6704C33.9776 65.7223 33.3171 66.6707 32.4857 67.4564C31.1934 68.7919 29.4981 69.6669 27.6599 69.947V78.833H35.0997C39.7249 78.7707 44.1432 76.9081 47.4148 73.6416C50.6863 70.3751 52.5529 65.9624 52.6174 61.3423V56.9073C52.6724 52.4441 51.1194 48.1098 48.2418 44.6951C45.3142 41.176 40.9335 39.4165 35.0997 39.4165C40.9389 38.7363 45.3195 36.9285 48.2418 33.9933C51.1641 31.0581 52.6227 27.0356 52.6174 21.9257Z" fill="#1F294E"/>
<path d="M117.581 5.16593C115.983 3.50892 114.063 2.19586 111.938 1.30745C109.814 0.419038 107.53 -0.0259501 105.227 -0.000160561H90.902V10.7418C92.4486 9.44789 94.4106 8.75468 96.4276 8.78942C97.5798 8.77596 98.7227 8.99617 99.7872 9.4367C100.852 9.87724 101.816 10.5289 102.621 11.3524C103.456 12.14 104.119 13.0921 104.568 14.1486C105.016 15.2051 105.241 16.3431 105.227 17.4906V35.0617H90.902V43.7629H105.227V78.8329H122.736V17.4906C122.762 15.1939 122.318 12.9162 121.431 10.7969C120.545 8.67767 119.235 6.76154 117.581 5.16593Z" fill="#1F294E"/>
<path d="M186.791 33.5595C189.334 30.3329 190.747 26.3615 190.812 22.2551V17.4908C190.781 12.8617 188.926 8.43116 185.649 5.15782C182.372 1.88449 177.937 0.0315703 173.303 0H138.203V78.833H155.705V43.7631H164.504C166.833 43.7758 169.064 44.7059 170.712 46.3515C172.359 47.9971 173.29 50.2254 173.303 52.5527V78.833H190.812V47.7883C190.797 45.4638 189.867 43.2388 188.221 41.5951C186.576 39.9514 184.348 39.0215 182.021 39.0068H173.311C179.608 39.0068 184.112 37.191 186.791 33.5595ZM173.311 26.2804C173.283 28.6023 172.347 30.8214 170.703 32.4626C169.058 34.1039 166.836 35.0369 164.512 35.0619H155.713V8.78958H164.512C165.664 8.77612 166.807 8.99633 167.871 9.43686C168.936 9.8774 169.9 10.5291 170.705 11.3525C171.54 12.1401 172.204 13.0922 172.652 14.1488C173.101 15.2053 173.325 16.3433 173.311 17.4908V26.2804Z" fill="#1F294E"/>
<path d="M232.596 0V8.78958H246.848V0H232.596ZM194.23 0V8.78958H211.74V78.833H229.306V0H194.23Z" fill="#1F294E"/>
<path d="M306.801 8.78958V0H262.974V78.833H306.801V70.0434H280.492V43.7631H298.082V35.0619H280.492V8.78958H306.801Z" fill="#1F294E"/>
<path d="M372.978 33.5595C375.519 30.3315 376.932 26.3609 377 22.2551V17.4908C376.968 12.8617 375.113 8.43116 371.837 5.15782C368.56 1.88449 364.125 0.0315703 359.49 0H345.978V8.78958H350.699C351.849 8.77691 352.989 8.99753 354.051 9.43808C355.113 9.87863 356.074 10.5299 356.876 11.3525C357.715 12.1385 358.38 13.0901 358.83 14.1469C359.28 15.2037 359.505 16.3425 359.49 17.4908V26.2804C359.459 28.5997 358.523 30.8152 356.881 32.4554C355.239 34.0955 353.021 35.0307 350.699 35.0619H345.978V43.7631H350.699C353.028 43.7779 355.256 44.7089 356.902 46.3543C358.548 47.9997 359.478 50.2268 359.49 52.5527V78.833H377V47.7883C376.985 45.4638 376.054 43.2388 374.409 41.5951C372.763 39.9514 370.536 39.0215 368.209 39.0068H359.49C365.796 39.0068 370.292 37.191 372.978 33.5595ZM324.391 0V78.833H341.908V0H324.391Z" fill="#1F294E"/>
<path d="M70.1109 123.102V171.517C70.1254 172.662 69.9029 173.798 69.4572 174.853C69.0115 175.907 68.3524 176.859 67.5211 177.647C66.7082 178.462 65.7422 179.108 64.6787 179.549C63.6153 179.99 62.4753 180.217 61.3239 180.217C60.1725 180.217 59.0325 179.99 57.969 179.549C56.9056 179.108 55.9396 178.462 55.1267 177.647C54.2917 176.861 53.6291 175.91 53.1805 174.855C52.732 173.8 52.5073 172.663 52.5208 171.517V153.938H35.0031V171.517C35.0031 177.318 36.4695 181.681 39.4026 184.605C42.3356 187.53 46.7083 188.995 52.5208 189H70.0546C75.8616 189 80.2317 187.535 83.1647 184.605C84.4436 183.321 85.4429 181.786 86.1003 180.098C87.1414 177.36 87.6387 174.445 87.5642 171.517V149.599L70.1109 123.102Z" fill="#1F294E"/>
<path d="M147.267 115.333C145.672 113.672 143.753 112.356 141.628 111.466C139.503 110.576 137.217 110.131 134.913 110.159H128.061V119.157C129.675 119.513 131.151 120.331 132.307 121.511C133.142 122.301 133.805 123.255 134.254 124.312C134.702 125.37 134.927 126.509 134.913 127.658V145.229H128.061V153.93H134.913V188.992H152.423V127.666C152.45 125.368 152.006 123.088 151.12 120.968C150.233 118.847 148.922 116.929 147.267 115.333ZM119.921 121.511C121.036 120.375 122.445 119.572 123.991 119.189V110.167H117.331C112.693 110.192 108.252 112.044 104.973 115.32C101.693 118.596 99.8391 123.032 99.8137 127.666V189H117.323V153.938H123.983V145.237H117.323V127.666C117.31 126.518 117.533 125.379 117.98 124.322C118.427 123.264 119.088 122.31 119.921 121.519V121.511Z" fill="#1F294E"/>
<path d="M173.295 110.207V189H190.836V110.207H173.295Z" fill="#1F294E"/>
<path d="M232.596 180.218V189H255.639V180.218H232.596ZM211.821 78.8409V189H229.306V78.8409H211.821Z" fill="#1F294E"/>
<path d="M284.755 180.218V189H306.994V180.218H284.755ZM284.755 110.167V118.956H306.994V110.167H284.755ZM284.755 145.237V153.938H298.275V145.237H284.755ZM263.175 110.167V189H280.677V110.167H263.175Z" fill="#1F294E"/>
<path d="M372.472 143.734C375.014 140.504 376.427 136.531 376.493 132.422V127.666C376.46 123.036 374.604 118.606 371.328 115.332C368.052 112.058 363.618 110.203 358.984 110.167H323.884V189H341.394V153.938H350.193C352.527 153.946 354.763 154.876 356.414 156.524C358.065 158.171 358.997 160.404 359.008 162.736V189.008H376.493V157.963C376.481 155.636 375.549 153.408 373.902 151.762C372.255 150.116 370.024 149.186 367.694 149.174H358.984C365.295 149.174 369.791 147.361 372.472 143.734ZM358.984 136.447C358.954 138.768 358.019 140.985 356.377 142.627C354.735 144.269 352.516 145.206 350.193 145.237H341.394V118.956H350.193C351.343 118.944 352.485 119.165 353.548 119.605C354.611 120.046 355.574 120.697 356.378 121.519C357.213 122.309 357.875 123.263 358.324 124.32C358.772 125.378 358.997 126.517 358.984 127.666V136.447Z" fill="#1F294E"/>
<path d="M70.111 51.4358V88.9723L87.6126 115.445V71.7145L70.111 51.4358ZM79.2075 89.4865C79.0923 89.4947 78.9768 89.4947 78.8617 89.4865C78.4254 89.4865 78.0071 89.3134 77.6986 89.0052C77.3901 88.6971 77.2169 88.2792 77.2169 87.8434C77.2169 87.4077 77.3901 86.9898 77.6986 86.6817C78.0071 86.3735 78.4254 86.2004 78.8617 86.2004C79.2844 86.2126 79.6866 86.3857 79.9856 86.6845C80.2847 86.9833 80.4581 87.385 80.4703 87.8073C80.4852 88.1896 80.3678 88.5653 80.1378 88.8712C79.9078 89.177 79.5792 89.3944 79.2075 89.4865ZM79.2075 83.7821C79.0923 83.7903 78.9768 83.7903 78.8617 83.7821C78.4254 83.7821 78.0071 83.609 77.6986 83.3008C77.3901 82.9927 77.2169 82.5748 77.2169 82.1391C77.2169 81.7033 77.3901 81.2854 77.6986 80.9773C78.0071 80.6691 78.4254 80.496 78.8617 80.496C79.2844 80.5082 79.6866 80.6813 79.9856 80.9801C80.2847 81.2789 80.4581 81.6806 80.4703 82.1029C80.4856 82.4841 80.3694 82.859 80.141 83.1647C79.9125 83.4704 79.5857 83.6884 79.2155 83.7821H79.2075Z" fill="#E5E5E5"/>
<path d="M79.2074 89.4865C79.0923 89.4947 78.9768 89.4947 78.8616 89.4865C78.4254 89.4865 78.0071 89.3134 77.6986 89.0053C77.3901 88.6971 77.2169 88.2792 77.2169 87.8435C77.2169 87.4077 77.3901 86.9898 77.6986 86.6817C78.0071 86.3735 78.4254 86.2004 78.8616 86.2004C78.978 86.2013 79.094 86.2148 79.2074 86.2406C78.8371 86.3141 78.5046 86.5153 78.2678 86.8091C78.0311 87.1028 77.9054 87.4704 77.9126 87.8475C77.9086 88.2273 78.035 88.5971 78.2706 88.8953C78.5062 89.1934 78.8367 89.4021 79.2074 89.4865Z" fill="#E5E5E5"/>
<path d="M79.2155 83.782C79.1004 83.7903 78.9849 83.7903 78.8697 83.782C78.4335 83.782 78.0151 83.6089 77.7067 83.3008C77.3982 82.9927 77.225 82.5748 77.225 82.139C77.225 81.7033 77.3982 81.2854 77.7067 80.9772C78.0151 80.6691 78.4335 80.496 78.8697 80.496C78.9847 80.4836 79.1006 80.4836 79.2155 80.496C78.8452 80.5695 78.5127 80.7707 78.2759 81.0645C78.0392 81.3582 77.9135 81.7258 77.9207 82.1029C77.9073 82.4895 78.0293 82.8687 78.2657 83.1752C78.5021 83.4817 78.8378 83.6963 79.2155 83.782Z" fill="#E5E5E5"/>
<path d="M87.6124 115.454V115.462L87.6044 127.593L70.1108 101.104V88.9803L87.6124 115.454Z" fill="#E5E5E5"/>
<g style="mix-blend-mode:soft-light">
<path d="M87.6124 115.454V115.462L87.6044 127.593L70.1108 101.104V88.9803L87.6124 115.454Z" fill="#E5E5E5"/>
</g>
<g style="mix-blend-mode:soft-light">
<path d="M79.2074 89.4865C79.0923 89.4947 78.9768 89.4947 78.8616 89.4865C78.4254 89.4865 78.0071 89.3134 77.6986 89.0053C77.3901 88.6971 77.2169 88.2792 77.2169 87.8435C77.2169 87.4077 77.3901 86.9898 77.6986 86.6817C78.0071 86.3735 78.4254 86.2004 78.8616 86.2004C78.978 86.2013 79.094 86.2148 79.2074 86.2406C78.8371 86.3141 78.5046 86.5153 78.2678 86.8091C78.0311 87.1028 77.9054 87.4704 77.9126 87.8475C77.9086 88.2273 78.035 88.5971 78.2706 88.8953C78.5062 89.1934 78.8367 89.4021 79.2074 89.4865Z" fill="#E5E5E5"/>
</g>
<g style="mix-blend-mode:soft-light">
<path d="M79.2155 83.782C79.1004 83.7903 78.9849 83.7903 78.8697 83.782C78.4335 83.782 78.0151 83.6089 77.7067 83.3008C77.3982 82.9927 77.225 82.5748 77.225 82.139C77.225 81.7033 77.3982 81.2854 77.7067 80.9772C78.0151 80.6691 78.4335 80.496 78.8697 80.496C78.9847 80.4836 79.1006 80.4836 79.2155 80.496C78.8452 80.5695 78.5127 80.7707 78.2759 81.0645C78.0392 81.3582 77.9135 81.7258 77.9207 82.1029C77.9073 82.4895 78.0293 82.8687 78.2657 83.1752C78.5021 83.4817 78.8378 83.6963 79.2155 83.782Z" fill="#E5E5E5"/>
</g>
</g>
<defs>
<clipPath id="clip0_382_756">
<rect width="378" height="190" fill="white"/>
</clipPath>
</defs>
</svg>
