<?xml version="1.0" encoding="utf-8"?>
<!-- Generator: Adobe Illustrator 24.2.1, SVG Export Plug-In . SVG Version: 6.00 Build 0)  -->
<svg version="1.1" id="Calque_1" xmlns="http://www.w3.org/2000/svg" xmlns:xlink="http://www.w3.org/1999/xlink" x="0px" y="0px"
	 viewBox="0 0 358 180" style="enable-background:new 0 0 358 180;" xml:space="preserve">
<style type="text/css">
	.st0{fill:#FF6C40;}
	.st1{fill:#1F294E;}
</style>
<path class="st0" d="M318.1,126.4H102.3v48.4h215.8V126.4z"/>
<path class="st1" d="M22.9,8.8V0.5H0.6v74.7h22.3v-8.3h-5.7V42h5.8v-8.2h-5.8V8.8H22.9z M50.4,21.3v-4.2c0-4.4-1.8-8.6-4.9-11.7
	c-3.1-3.1-7.3-4.9-11.7-4.9h-7v8.4c1.7,0.3,3.3,1.1,4.6,2.3c0.8,0.7,1.4,1.6,1.8,2.7c0.4,1,0.6,2.1,0.6,3.2v8.3c0,2-0.8,3.9-2,5.4
	c-1.3,1.5-3.1,2.5-5,2.8V42c4.7,0.4,7,3.2,7,8.3v8.3c0,1.1-0.2,2.2-0.6,3.2c-0.4,1-1.1,1.9-1.8,2.6c-1.2,1.3-2.8,2.1-4.6,2.4v8.4h7
	c4.4-0.1,8.6-1.8,11.6-4.9c3.1-3.1,4.9-7.3,4.9-11.7v-4.2c0.1-4.2-1.4-8.3-4.1-11.6c-2.8-3.3-6.9-5-12.4-5c5.5-0.6,9.7-2.4,12.4-5.1
	C49,29.9,50.4,26.1,50.4,21.3z"/>
<path class="st1" d="M111.8,5.4c-1.5-1.6-3.3-2.8-5.3-3.7c-2-0.8-4.2-1.3-6.4-1.2H86.6v10.2c1.6-1.3,3.6-1.9,5.7-1.8
	c2,0.1,4,1,5.4,2.4c0.8,0.7,1.4,1.6,1.8,2.7c0.4,1,0.6,2.1,0.6,3.2v16.7H86.6V42h13.5v33.2h16.6V17.1c0-2.2-0.4-4.3-1.2-6.3
	C114.6,8.7,113.3,6.9,111.8,5.4z M82,0.5c-4.1,0.4-7.9,2.3-10.7,5.3s-4.4,7-4.4,11.2v58.1h16.6V0.5C83,0.5,82.5,0.5,82,0.5L82,0.5z"
	/>
<path class="st1" d="M177.3,32.3c2.4-3.1,3.7-6.8,3.8-10.7v-4.5c0-4.4-1.8-8.6-4.9-11.7c-3.1-3.1-7.3-4.9-11.7-4.9h-33.2v74.7h16.6
	V42h8.3c2.2,0,4.3,0.9,5.9,2.5c1.6,1.6,2.4,3.7,2.5,5.9v24.9h16.6V45.8c0-2.2-0.9-4.3-2.5-5.9c-1.6-1.6-3.7-2.4-5.9-2.5h-8.2
	C170.5,37.5,174.7,35.8,177.3,32.3z M164.5,25.4c0,2.2-0.9,4.3-2.5,5.9s-3.7,2.4-5.9,2.5h-8.3V8.8h8.3c1.1,0,2.2,0.2,3.2,0.6
	c1,0.4,1.9,1,2.7,1.8c0.8,0.7,1.4,1.6,1.8,2.7c0.4,1,0.6,2.1,0.6,3.2V25.4z"/>
<path class="st1" d="M220.6,0.5v8.3H234V0.5H220.6z M184.3,0.5v8.3h16.6v66.4h16.6V0.5H184.3z"/>
<path class="st1" d="M290.7,8.8V0.5h-41.4v74.7h41.4v-8.3h-24.8V42h16.6v-8.2h-16.6V8.8H290.7z"/>
<path class="st1" d="M353.3,32.3c2.4-3.1,3.7-6.8,3.8-10.7v-4.5c0-4.4-1.8-8.6-4.9-11.7c-3.1-3.1-7.3-4.9-11.7-4.9h-12.8v8.3h4.5
	c1.1,0,2.2,0.2,3.2,0.6c1,0.4,1.9,1,2.7,1.8c0.8,0.7,1.4,1.6,1.8,2.7c0.4,1,0.6,2.1,0.6,3.2v8.3c0,2.2-0.9,4.3-2.5,5.9
	c-1.6,1.6-3.7,2.4-5.8,2.5h-4.5V42h4.5c2.2,0,4.3,0.9,5.9,2.5c1.6,1.6,2.4,3.7,2.4,5.9v24.9h16.6V45.8c0-2.2-0.9-4.3-2.5-5.9
	c-1.6-1.6-3.7-2.4-5.9-2.5h-8.2C346.5,37.5,350.8,35.8,353.3,32.3z M307.4,0.5v74.7h16.6V0.5H307.4z"/>
<path class="st1" d="M66.9,45.2v117.9c0,1.1-0.2,2.2-0.6,3.2c-0.4,1-1,1.9-1.8,2.7c-1.6,1.6-3.7,2.4-5.9,2.4s-4.3-0.9-5.9-2.4
	c-0.8-0.7-1.4-1.6-1.8-2.6c-0.4-1-0.6-2.1-0.6-3.2v-16.7H33.7v16.7c0,5.5,1.4,9.6,4.2,12.4c2.8,2.8,6.9,4.2,12.4,4.2h16.6
	c5.5,0,9.6-1.4,12.4-4.2c1.2-1.2,2.1-2.7,2.8-4.3c1-2.6,1.5-5.4,1.4-8.1l0-117.9H66.9z"/>
<path class="st1" d="M114,115.7c1.1-1.1,2.4-1.8,3.9-2.2v-8.6h-6.3c-4.4,0-8.6,1.8-11.7,4.9c-3.1,3.1-4.9,7.3-4.9,11.7v58.1h16.6
	v-33.2h6.3v-8.3h-6.3v-16.7c0-1.1,0.2-2.2,0.6-3.2C112.6,117.3,113.2,116.4,114,115.7z M139.9,109.8c-1.5-1.6-3.3-2.8-5.3-3.7
	s-4.2-1.3-6.3-1.2h-6.5v8.5c1.5,0.3,2.9,1.1,4,2.2c0.8,0.7,1.4,1.7,1.8,2.7c0.4,1,0.6,2.1,0.6,3.2v16.7h-6.5v8.3h6.5v33.2h16.6
	v-58.1c0-2.2-0.4-4.3-1.2-6.3C142.7,113.2,141.4,111.3,139.9,109.8L139.9,109.8z"/>
<path class="st1" d="M164.5,105v74.7h16.6V105H164.5z"/>
<path class="st1" d="M200.9,55.2v124.4h16.6V55.2H200.9z M220.6,171.3v8.3h21.8v-8.3H220.6z"/>
<path class="st1" d="M249.5,104.9v74.7H266v-74.7H249.5z M269.9,138.2v8.3h12.8v-8.3H269.9z M269.9,104.9v8.3h21v-8.3H269.9z
	 M269.9,171.3v8.3h21v-8.3H269.9z"/>
<path class="st1" d="M352.9,136.8c2.4-3.1,3.7-6.8,3.8-10.7v-4.5c0-4.4-1.8-8.6-4.9-11.7c-3.1-3.1-7.3-4.9-11.7-4.9h-33.2v74.7h16.6
	v-33.2h8.3c2.2,0,4.3,0.9,5.9,2.5s2.4,3.7,2.5,5.9v24.9h16.6v-29.4c0-2.2-0.9-4.3-2.5-5.9c-1.6-1.6-3.7-2.4-5.9-2.5h-8.2
	C346.1,141.9,350.3,140.2,352.9,136.8z M340.1,129.8c0,2.2-0.9,4.3-2.5,5.9c-1.6,1.6-3.7,2.4-5.8,2.5h-8.3v-24.9h8.3
	c1.1,0,2.2,0.2,3.2,0.6c1,0.4,1.9,1,2.7,1.8c0.8,0.7,1.4,1.7,1.8,2.7c0.4,1,0.6,2.1,0.6,3.2V129.8z"/>
</svg>
