<?xml version="1.0" encoding="utf-8"?>
<!-- Generator: Adobe Illustrator 24.2.1, SVG Export Plug-In . SVG Version: 6.00 Build 0)  -->
<svg version="1.1" id="Calque_1" xmlns="http://www.w3.org/2000/svg" xmlns:xlink="http://www.w3.org/1999/xlink" x="0px" y="0px"
	 viewBox="0 0 171 86" style="enable-background:new 0 0 171 86;" xml:space="preserve">
<style type="text/css">
	.st0{fill:#FF6C40;}
	.st1{fill:#E5E5E5;}
	.st2{clip-path:url(#SVGID_2_);}
	.st3{fill:#FFFFFF;}
</style>
<path class="st0" d="M152.3,60.5H48.8v23.2h103.5V60.5z"/>
<path class="st1" d="M35.9,40.7c-0.1,0-0.1,0-0.2,0c-0.1,0-0.2,0-0.3-0.1c-0.1,0-0.2-0.1-0.2-0.2c-0.1-0.1-0.1-0.2-0.2-0.2
	c0-0.1-0.1-0.2-0.1-0.3c0-0.2,0.1-0.4,0.2-0.5c0.1-0.1,0.3-0.2,0.5-0.2c0.1,0,0.1,0,0.2,0c-0.2,0-0.3,0.1-0.4,0.3
	c-0.1,0.1-0.2,0.3-0.2,0.5c0,0.2,0.1,0.3,0.2,0.5C35.6,40.6,35.8,40.7,35.9,40.7z"/>
<path class="st1" d="M35.9,38.1c-0.1,0-0.1,0-0.2,0c-0.1,0-0.2,0-0.3-0.1s-0.2-0.1-0.2-0.2c-0.1-0.1-0.1-0.2-0.2-0.2
	c0-0.1-0.1-0.2-0.1-0.3c0-0.1,0-0.2,0.1-0.3c0-0.1,0.1-0.2,0.2-0.2c0.1-0.1,0.2-0.1,0.2-0.2c0.1,0,0.2-0.1,0.3-0.1
	c0.1,0,0.1,0,0.2,0c-0.2,0-0.3,0.1-0.4,0.3c-0.1,0.1-0.2,0.3-0.2,0.5c0,0.2,0.1,0.3,0.2,0.5C35.6,38,35.8,38.1,35.9,38.1z"/>
<path class="st1" d="M39.7,52.5L39.7,52.5l0,5.5L31.8,46v-5.5L39.7,52.5z"/>
<g>
	<defs>
		<rect id="SVGID_1_" y="0" width="171" height="86"/>
	</defs>
	<clipPath id="SVGID_2_">
		<use xlink:href="#SVGID_1_"  style="overflow:visible;"/>
	</clipPath>
	<g class="st2">
		<path class="st3" d="M39.7,0v31.9h-7.9V8c0-2,0.8-3.9,2.1-5.4s3.2-2.4,5.2-2.6C39.3,0,39.5,0,39.7,0z"/>
		<path class="st3" d="M10.7,4V0H0v35.9h10.7v-4H7.9v-12h2.8v-4H7.9V4H10.7z M23.9,10V8c0-2.1-0.9-4.1-2.3-5.6C20,0.9,18,0,15.9,0
			h-3.4v4c0.8,0.1,1.6,0.5,2.2,1.1c0.4,0.4,0.7,0.8,0.9,1.3c0.2,0.5,0.3,1,0.3,1.5v4c0,1-0.4,1.9-1,2.6c-0.6,0.7-1.5,1.2-2.4,1.4v4
			c2.3,0.2,3.4,1.5,3.4,4v4c0,0.5-0.1,1-0.3,1.5c-0.2,0.5-0.5,0.9-0.9,1.3c-0.6,0.6-1.4,1-2.2,1.1v4.1h3.4c2.1,0,4.1-0.9,5.6-2.4
			c1.5-1.5,2.3-3.5,2.4-5.6v-2c0-2-0.7-4-2-5.6c-1.3-1.6-3.3-2.4-6-2.4c2.6-0.3,4.6-1.1,6-2.5C23.2,14.2,23.9,12.3,23.9,10z"/>
		<path class="st3" d="M53.3,2.3c-0.7-0.8-1.6-1.4-2.6-1.8c-1-0.4-2-0.6-3-0.6h-6.5v4.9C41.9,4.3,42.8,4,43.7,4c0.5,0,1,0.1,1.5,0.3
			c0.5,0.2,0.9,0.5,1.3,0.9c0.4,0.4,0.7,0.8,0.9,1.3c0.2,0.5,0.3,1,0.3,1.5v8h-6.5v4h6.5v16h7.9V8c0-1-0.2-2.1-0.6-3
			C54.7,3.9,54.1,3.1,53.3,2.3z"/>
		<path class="st3" d="M84.7,15.3c1.2-1.5,1.8-3.3,1.8-5.1V8c0-2.1-0.9-4.1-2.3-5.6C82.7,0.9,80.7,0,78.6,0H62.7v35.9h7.9v-16h4
			c1.1,0,2.1,0.4,2.8,1.2c0.7,0.7,1.2,1.8,1.2,2.8v12h7.9V21.7c0-1.1-0.4-2.1-1.2-2.8c-0.7-0.7-1.8-1.2-2.8-1.2h-4
			C81.5,17.7,83.5,16.9,84.7,15.3z M78.6,12c0,1.1-0.4,2.1-1.2,2.8c-0.7,0.7-1.8,1.2-2.8,1.2h-4V4h4c0.5,0,1,0.1,1.5,0.3
			c0.5,0.2,0.9,0.5,1.3,0.9c0.4,0.4,0.7,0.8,0.9,1.3c0.2,0.5,0.3,1,0.3,1.5V12z"/>
		<path class="st3" d="M105.5,0v4h6.5V0H105.5z"/>
		<path class="st3" d="M104,0v86h-7.9l0-50.1V4h-7.9V0H104z"/>
		<path class="st3" d="M139.2,4V0h-19.9v35.9h19.9v-4h-11.9v-12h8v-4h-8V4H139.2z"/>
		<path class="st3" d="M169.2,15.3c1.2-1.5,1.8-3.3,1.8-5.1V8c0-2.1-0.9-4.1-2.3-5.6c-1.5-1.5-3.5-2.3-5.6-2.3h-6.1v4h2.1
			c0.5,0,1,0.1,1.5,0.3c0.5,0.2,0.9,0.5,1.3,0.9c0.4,0.4,0.7,0.8,0.9,1.3c0.2,0.5,0.3,1,0.3,1.5v4c0,1.1-0.4,2.1-1.2,2.8
			c-0.7,0.7-1.8,1.2-2.8,1.2h-2.1v4h2.1c1.1,0,2.1,0.4,2.8,1.2c0.7,0.7,1.2,1.8,1.2,2.8v12h7.9V21.7c0-1.1-0.4-2.1-1.2-2.8
			c-0.7-0.7-1.8-1.2-2.8-1.2h-4C165.9,17.7,168,16.9,169.2,15.3z M147.1,0v35.9h7.9V0H147.1z"/>
		<path class="st3" d="M31.8,56v22c0,0.5-0.1,1-0.3,1.5c-0.2,0.5-0.5,0.9-0.9,1.3c-0.4,0.4-0.8,0.7-1.3,0.9c-0.5,0.2-1,0.3-1.5,0.3
			c-0.5,0-1-0.1-1.5-0.3c-0.5-0.2-0.9-0.5-1.3-0.9c-0.4-0.4-0.7-0.8-0.9-1.3c-0.2-0.5-0.3-1-0.3-1.5v-8h-8v8c0,2.6,0.7,4.6,2,6
			c1.3,1.3,3.3,2,6,2h8c2.6,0,4.6-0.7,5.9-2c0.6-0.6,1-1.3,1.3-2.1c0.5-1.2,0.7-2.6,0.7-3.9v-10L31.8,56z"/>
		<path class="st3" d="M66.8,52.5c-0.7-0.8-1.6-1.4-2.6-1.8c-1-0.4-2-0.6-3-0.6h-3.1v4.1c0.7,0.2,1.4,0.5,1.9,1.1
			c0.4,0.4,0.7,0.8,0.9,1.3c0.2,0.5,0.3,1,0.3,1.5v8h-3.1v4h3.1v16h7.9V58.1c0-1-0.2-2.1-0.6-3C68.1,54.1,67.5,53.2,66.8,52.5z
			 M54.4,55.3c0.5-0.5,1.1-0.9,1.8-1.1v-4.1h-3c-2.1,0-4.1,0.9-5.6,2.3c-1.5,1.5-2.3,3.5-2.3,5.6V86h7.9V70h3v-4h-3v-8
			c0-0.5,0.1-1,0.3-1.5C53.7,56.1,54,55.7,54.4,55.3L54.4,55.3z"/>
		<path class="st3" d="M78.6,50.1V86h8V50.1H78.6z"/>
		<path class="st3" d="M105.5,82v4h10.5v-4H105.5z"/>
		<path class="st3" d="M129.2,82v4h10.1v-4H129.2z M129.2,50.1v4h10.1v-4L129.2,50.1z M129.2,66.1v4h6.1v-4H129.2z M119.4,50.1V86
			h7.9V50.1H119.4z"/>
		<path class="st3" d="M169,65.4c1.2-1.5,1.8-3.3,1.8-5.1v-2.2c0-2.1-0.9-4.1-2.3-5.6c-1.5-1.5-3.5-2.3-5.6-2.3h-15.9V86h7.9V70h4
			c1.1,0,2.1,0.4,2.8,1.2c0.7,0.7,1.2,1.8,1.2,2.8v12h7.9V71.9c0-1.1-0.4-2.1-1.2-2.8c-0.7-0.8-1.8-1.2-2.8-1.2h-4
			C165.7,67.9,167.7,67.1,169,65.4z M162.8,62.1c0,1.1-0.4,2.1-1.2,2.8c-0.7,0.7-1.7,1.2-2.8,1.2h-4v-12h4c0.5,0,1,0.1,1.5,0.3
			c0.5,0.2,0.9,0.5,1.3,0.9c0.4,0.4,0.7,0.8,0.9,1.3c0.2,0.5,0.3,1,0.3,1.5L162.8,62.1z"/>
		<path class="st3" d="M31.8,30.9v9.6l7.9,12V35.9v-5L31.8,30.9z M35.9,40.7c-0.1,0-0.1,0-0.2,0c-0.2,0-0.4-0.1-0.5-0.2
			C35.1,40.4,35,40.2,35,40s0.1-0.4,0.2-0.5c0.1-0.1,0.3-0.2,0.5-0.2c0.2,0,0.4,0.1,0.5,0.2c0.1,0.1,0.2,0.3,0.2,0.5
			c0,0.2,0,0.3-0.2,0.5C36.2,40.6,36.1,40.7,35.9,40.7z M35.9,38.1c-0.1,0-0.1,0-0.2,0c-0.2,0-0.4-0.1-0.5-0.2
			c-0.1-0.1-0.2-0.3-0.2-0.5s0.1-0.4,0.2-0.5c0.1-0.1,0.3-0.2,0.5-0.2c0.2,0,0.4,0.1,0.5,0.2c0.1,0.1,0.2,0.3,0.2,0.5
			c0,0.2,0,0.3-0.2,0.5C36.2,38,36.1,38.1,35.9,38.1z"/>
		<path class="st1" d="M35.9,40.7c-0.1,0-0.1,0-0.2,0c-0.2,0-0.4-0.1-0.5-0.2C35.1,40.4,35,40.2,35,40s0.1-0.4,0.2-0.5
			c0.1-0.1,0.3-0.2,0.5-0.2c0.1,0,0.1,0,0.2,0c-0.2,0-0.3,0.1-0.4,0.3c-0.1,0.1-0.2,0.3-0.2,0.5c0,0.2,0.1,0.3,0.2,0.5
			C35.6,40.6,35.8,40.7,35.9,40.7z"/>
		<path class="st1" d="M35.9,38.1c-0.1,0-0.1,0-0.2,0c-0.2,0-0.4-0.1-0.5-0.2c-0.1-0.1-0.2-0.3-0.2-0.5s0.1-0.4,0.2-0.5
			c0.1-0.1,0.3-0.2,0.5-0.2c0.1,0,0.1,0,0.2,0c-0.2,0-0.3,0.1-0.4,0.3c-0.1,0.1-0.2,0.3-0.2,0.5c0,0.2,0.1,0.3,0.2,0.5
			C35.6,38,35.8,38.1,35.9,38.1z"/>
		<path class="st1" d="M39.7,52.5L39.7,52.5l0,5.5L31.8,46v-5.5L39.7,52.5z"/>
		<g>
			<path class="st1" d="M39.7,52.5L39.7,52.5l0,5.5L31.8,46v-5.5L39.7,52.5z"/>
		</g>
		<g>
			<path class="st1" d="M35.9,40.7c-0.1,0-0.1,0-0.2,0c-0.2,0-0.4-0.1-0.5-0.2C35.1,40.4,35,40.2,35,40s0.1-0.4,0.2-0.5
				c0.1-0.1,0.3-0.2,0.5-0.2c0.1,0,0.1,0,0.2,0c-0.2,0-0.3,0.1-0.4,0.3c-0.1,0.1-0.2,0.3-0.2,0.5c0,0.2,0.1,0.3,0.2,0.5
				C35.6,40.6,35.8,40.7,35.9,40.7z"/>
		</g>
		<g>
			<path class="st1" d="M35.9,38.1c-0.1,0-0.1,0-0.2,0c-0.2,0-0.4-0.1-0.5-0.2c-0.1-0.1-0.2-0.3-0.2-0.5s0.1-0.4,0.2-0.5
				c0.1-0.1,0.3-0.2,0.5-0.2c0.1,0,0.1,0,0.2,0c-0.2,0-0.3,0.1-0.4,0.3c-0.1,0.1-0.2,0.3-0.2,0.5c0,0.2,0.1,0.3,0.2,0.5
				C35.6,38,35.8,38.1,35.9,38.1z"/>
		</g>
	</g>
</g>
</svg>
