<?xml version="1.0" encoding="utf-8"?>
<!-- Generator: Adobe Illustrator 24.2.1, SVG Export Plug-In . SVG Version: 6.00 Build 0)  -->
<svg version="1.1" id="Calque_1" xmlns="http://www.w3.org/2000/svg" xmlns:xlink="http://www.w3.org/1999/xlink" x="0px" y="0px"
	 viewBox="0 0 370 182" style="enable-background:new 0 0 370 182;" xml:space="preserve">
<style type="text/css">
	.st0{fill:#FF6C40;}
	.st1{fill:#FFFFFF;}
</style>
<path class="st0" d="M329.3,127.9H105.9V177h223.4V127.9z"/>
<path class="st1" d="M23.7,8.6V0.2H0.6v75.8h23.1v-8.5h-6V42.2h6v-8.4h-6V8.6H23.7z M52.1,21.2V17c0-4.4-1.9-8.7-5.1-11.8
	C43.8,2,39.5,0.2,35,0.2h-7.3v8.5c1.8,0.3,3.5,1.1,4.7,2.4c0.8,0.8,1.5,1.7,1.9,2.7c0.4,1,0.7,2.1,0.7,3.2v8.5c0,2-0.8,3.9-2.1,5.5
	c-1.3,1.5-3.2,2.5-5.2,2.9v8.5c4.9,0.4,7.3,3.2,7.3,8.4v8.4c0,1.1-0.2,2.2-0.7,3.2c-0.4,1-1.1,1.9-1.9,2.7c-1.3,1.3-2.9,2.1-4.7,2.4
	v8.5H35c4.5-0.1,8.9-1.8,12.1-5c3.2-3.1,5-7.4,5.1-11.8v-4.3c0.1-4.3-1.5-8.5-4.3-11.7C45,39.7,40.7,38,35,38
	c5.7-0.7,10-2.4,12.9-5.2C50.7,30,52.1,26.1,52.1,21.2z"/>
<path class="st1" d="M115.7,5.1c-1.6-1.6-3.4-2.9-5.5-3.7c-2.1-0.9-4.3-1.3-6.6-1.3h-14v10.4c1.6-1.3,3.7-2,5.9-1.9
	c2.1,0.1,4.1,1,5.6,2.5c0.8,0.8,1.5,1.7,1.9,2.7c0.4,1,0.7,2.1,0.6,3.2v16.9h-14v8.4h14V76h17.1V17c0-2.2-0.4-4.4-1.3-6.4
	C118.6,8.5,117.3,6.6,115.7,5.1z M84.9,0.2c-4.3,0.4-8.2,2.3-11.1,5.4c-2.9,3.1-4.5,7.1-4.5,11.3v59h17.1V0.2
	C85.9,0.2,85.4,0.2,84.9,0.2L84.9,0.2z"/>
<path class="st1" d="M183.5,32.4c2.5-3.1,3.9-6.9,3.9-10.9V17c0-4.4-1.9-8.7-5.1-11.9s-7.5-4.9-12.1-5h-34.4v75.8h17.1V42.2h8.7
	c2.3,0,4.5,0.9,6.1,2.5c1.6,1.6,2.5,3.7,2.5,6v25.3h17.1V46.1c0-2.2-0.9-4.4-2.5-6c-1.6-1.6-3.8-2.5-6.1-2.5h-8.5
	C176.5,37.7,180.9,35.9,183.5,32.4z M170.3,25.4c0,2.2-1,4.4-2.6,5.9c-1.6,1.6-3.8,2.5-6.1,2.5h-8.6V8.6h8.7c1.1,0,2.2,0.2,3.3,0.6
	s2,1,2.8,1.8c0.8,0.8,1.5,1.7,1.9,2.7c0.4,1,0.7,2.1,0.7,3.2L170.3,25.4z"/>
<path class="st1" d="M228.3,0.2v8.5h13.9V0.2H228.3z M190.8,0.2v8.5h17.1v67.3h17.2V0.2H190.8z"/>
<path class="st1" d="M301,8.6V0.2h-42.9v75.8H301v-8.5h-25.8V42.2h17.2v-8.4h-17.2V8.6H301z"/>
<path class="st1" d="M365.8,32.4c2.5-3.1,3.9-6.9,3.9-10.9V17c0-4.4-1.9-8.7-5.1-11.8c-3.2-3.1-7.5-4.9-12.1-5h-13.2v8.5h4.6
	c1.1,0,2.2,0.2,3.3,0.6c1,0.4,2,1,2.8,1.8c0.8,0.8,1.5,1.7,1.9,2.7c0.4,1,0.7,2.1,0.6,3.2v8.5c0,2.2-0.9,4.4-2.6,5.9
	c-1.6,1.6-3.8,2.5-6.1,2.5h-4.6v8.4h4.6c2.3,0,4.5,0.9,6.1,2.5c1.6,1.6,2.5,3.7,2.5,6v25.3h17.2V46.1c0-2.2-0.9-4.4-2.5-6
	c-1.6-1.6-3.8-2.5-6.1-2.5h-8.5C358.8,37.7,363.2,35.9,365.8,32.4z M318.2,0.2v75.8h17.1V0.2H318.2z"/>
<path class="st1" d="M69.2,55.9l0,109.1c0,1.1-0.2,2.2-0.6,3.2c-0.4,1-1.1,1.9-1.9,2.7c-1.6,1.6-3.8,2.5-6.1,2.5
	c-2.3,0-4.5-0.9-6.1-2.5c-0.8-0.8-1.5-1.7-1.9-2.7c-0.4-1-0.7-2.1-0.6-3.2v-16.9H34.8v16.9c0,5.6,1.4,9.8,4.3,12.6
	c2.9,2.8,7.2,4.2,12.8,4.2h17.2c5.7,0,10-1.4,12.8-4.2c1.2-1.2,2.2-2.7,2.9-4.3c1-2.6,1.5-5.4,1.4-8.2l0-109.1H69.2z"/>
<path class="st1" d="M118,117c1.1-1.1,2.5-1.9,4-2.2v-8.7h-6.5c-4.5,0-8.9,1.8-12.1,5c-3.2,3.1-5,7.4-5.1,11.9v59h17.1v-33.7h6.5
	v-8.4h-6.5v-16.9c0-1.1,0.2-2.2,0.6-3.2C116.6,118.7,117.2,117.8,118,117z M144.8,111.1c-1.6-1.6-3.4-2.9-5.5-3.7s-4.3-1.3-6.6-1.3
	H126v8.7c1.6,0.3,3,1.1,4.2,2.3c0.8,0.8,1.5,1.7,1.9,2.7c0.4,1,0.7,2.1,0.7,3.2v16.9H126v8.4h6.7v33.7h17.1v-59
	c0-2.2-0.4-4.4-1.3-6.4C147.7,114.4,146.4,112.6,144.8,111.1L144.8,111.1z"/>
<path class="st1" d="M170.3,106.1v75.8h17.2v-75.8H170.3z"/>
<path class="st1" d="M207.9,74.1l0.1,107.8h17.1V70.8L207.9,74.1z M228.3,173.4v8.5h22.6v-8.5H228.3z"/>
<path class="st1" d="M258.3,106.1v75.8h17.1v-75.8H258.3z M279.4,139.8v8.4h13.2v-8.4H279.4z M279.4,106.1v8.5h21.8v-8.5H279.4z
	 M279.4,173.4v8.5h21.8v-8.5H279.4z"/>
<path class="st1" d="M365.3,138.4c2.5-3.1,3.9-6.9,3.9-10.9v-4.6c0-4.4-1.9-8.7-5.1-11.8c-3.2-3.1-7.5-4.9-12.1-5h-34.4v75.8h17.1
	v-33.7h8.6c2.3,0,4.5,0.9,6.1,2.5c1.6,1.6,2.5,3.7,2.5,6v25.3h17.2V152c0-2.2-0.9-4.4-2.5-6c-1.6-1.6-3.8-2.5-6.1-2.5h-8.5
	C358.3,143.6,362.7,141.8,365.3,138.4z M352.1,131.3c0,2.2-0.9,4.4-2.6,5.9c-1.6,1.6-3.8,2.5-6.1,2.5h-8.6v-25.3h8.6
	c1.1,0,2.2,0.2,3.3,0.6c1,0.4,2,1,2.8,1.8c0.8,0.8,1.5,1.7,1.9,2.7c0.4,1,0.7,2.1,0.6,3.2V131.3z"/>
</svg>
