<svg version="1.1" xmlns="http://www.w3.org/2000/svg" x="0px" y="0px" viewBox="0 0 343.8 275" xml:space="preserve">
	<path fill="#FFFF" d="M171.2,275c-42.9,0-85.9,0.2-128.8-0.1c-29.7-0.1-42.1-12.2-42.2-41.4C-0.1,186.3,0,139,0.2,91.8
		c0.1-22.2,4-24.2,23.6-12.2c40.8,25.1,82,49.6,121.8,76.2c18.7,12.5,33.1,13.5,52.2,0.5c40.1-27.4,81.8-52.5,123.1-78.2
		c5.1-3.2,11.6-4.3,17.4-6.3c1.8,6.4,5.2,12.8,5.2,19.3c0.4,47.2,0.4,94.4,0.2,141.7c-0.1,29.6-12.3,41.9-41.5,42.1
		C258.5,275.1,214.8,275,171.2,275z"/>
	<path fill="#FFFF" d="M173.2,0.1c42.2,0,84.4-0.2,126.6,0.2c8.4,0.1,17.4,0.9,24.9,4.3c17,7.7,18.2,20,2.7,30
		c-46.8,30.2-93.8,60.1-141.6,88.8c-6.9,4.1-20.4,4.3-27.3,0.2c-47.9-28.4-95-58.2-142.1-88.1C0.6,25.5,1,13.8,17.6,5.3
		c7.2-3.7,16.4-4.9,24.7-5C85.9-0.2,129.6,0.1,173.2,0.1z"/>
</svg>
