<svg xmlns="http://www.w3.org/2000/svg" viewBox="0 0 492.5 520.2">
  <path d="M544.2,458.7c.3-30.1.2-58.5-25.8-80.9-7.6-6.6-20.6-24.3,7.9-26,11.2-.7,18.4-9.4,17.2-21.4s-9.5-20-20.6-18.1c-24.9,4.2-27.7-12.5-30.9-29.4-6.6-34.7-23.6-61.7-58-73.8-13.4-4.7-11.1-14.1-13.7-23.7-9.7-35.6-39.9-20.7-62.6-24.1s-19.2,12.9-18.5,25.7-3.8,16-15.6,15.5c-17-.8-34.1-.8-51.2,0-11.7.5-17.5-3.6-15.3-15.4,5-25.4-9.5-26.4-28.9-26.2-27.6.3-54.3-1.3-54,38,0,6.7-7.1,7.8-12.3,9.9-34,13.2-51.3,39.4-57.8,74.1-3.2,17-6.1,33.6-31,29.4-11.1-1.9-19.5,6.3-20.6,18.1s6,20.4,17.3,21.5c34.7,3.3,11.6,22.5,5.5,28.3C54.8,399.6,51,422.4,51.8,448.4c1,28.4.3,56.9.3,85.3,0,36.4.5,72.8-.2,109.2-.6,25.5,10,37.7,36.2,38s46.9-2.3,45.7-35c-.4-13,.6-20.5,17.5-20.4,97.8.8,195.6.6,293.4.2,12.6,0,18.8,2.5,17.5,16.7-3,33.9,18,38.8,45.6,38.6,31.8-.3,36.8-18.7,36.4-44.8Q543.2,547.4,544.2,458.7Zm-398-174.8c6.8-29,25.7-40.8,54.5-40.7q97.4.5,194.6,0c28.8-.1,47.6,11.7,54.5,40.7,6.3,26.4,13,52.7,20,80.9H126.2C133.2,336.6,140,310.3,146.2,283.9ZM482,585.3c-61.3-.8-122.7-.4-184.1-.4s-120.4-.7-180.6.5c-18.9.3-25.5-4.3-24.7-24.1,1.6-39.7,1.3-79.6.1-119.3-.6-24.2,7.5-35.2,33.2-35q172.2,1,344.3,0c22.8-.1,33.6,7.8,33,31.7-.9,42.1-1,84.2.2,126.2C503.9,582,497.8,585.5,482,585.3Z" transform="translate(-51.7 -160.8)" />
  <path d="M297.6,543.8c-15.8,0-31.6.4-47.4-.2-11.6-.5-19.5-7.2-20.1-18.9-.7-13.6,7.7-21.2,20.8-21.5,31.6-.5,63.3-.4,95,.1,11.5.2,19.4,7.1,20,18.8.7,13.6-7.8,21-20.8,21.6C329.3,544.4,313.5,543.8,297.6,543.8Z" transform="translate(-51.7 -160.8)" />
  <path d="M189.2,472.4c-2.3,19-11,30.3-28.5,30-15.4-.2-25.9-9.9-26.2-25.7s10.2-27.7,27.5-28S185,460.4,189.2,472.4Z" transform="translate(-51.7 -160.8)" />
  <path d="M462.1,476.2c-2.5,15.2-10.7,25.9-26.4,26.2s-28.4-9.9-27.8-27.4,11.7-27.4,29.1-26.2C452.7,449.8,460.4,460.8,462.1,476.2Z" transform="translate(-51.7 -160.8)" />
</svg>
