<svg xmlns="http://www.w3.org/2000/svg" viewBox="0 0 96.9 115.2">
  <path d="M346.4,378.6c-.1-9.8-5.3-15.1-14.9-15.1q-33.3-.3-66.6,0c-10.1,0-15.2,5.2-15.3,15.4q-.2,42,0,84c.1,10.2,5.2,15.5,15.3,15.6,21.9.1,43.9.1,65.8,0,10.6-.1,15.6-5.2,15.7-15.9C346.4,434.6,346.5,406.6,346.4,378.6Zm-9.1,43c0,13.1-.2,26.2.1,39.3.2,6-1.6,8.7-8.1,8.6-20.9-.3-41.8-.2-62.7,0-5.9.1-8.1-2-8-7.9q.3-40.5,0-81c-.1-6.4,2.3-8.3,8.4-8.2q31,.5,62,0c6.2-.1,8.6,2,8.4,8.3C337.1,394.3,337.3,407.9,337.3,421.6Z" transform="translate(-249.6 -363.4)" />
  <path d="M297.5,454.3c-4.8,0-9.6-.1-14.3,0s-6.3-.8-6.2-4.7,2.6-4.4,5.7-4.4h30.9c3.1,0,5.6,1.2,5.5,4.7s-2.7,4.4-5.8,4.4C308,454.2,302.7,454.3,297.5,454.3Z" transform="translate(-249.6 -363.4)" />
  <path d="M273,436.1c-2.1-.2-4.9.8-6.8-1.4s-1.7-6.3,2.1-7.4,6-.3,9-.3,5.6,1.2,5.5,4.7-2.7,4.5-5.8,4.4Z" transform="translate(-249.6 -363.4)" />
  <path d="M325.3,388.1c.1-5-2.5-6.7-7.1-6.6-13.6.2-27.2.1-40.8.1-4.2-.1-6.7,1.4-6.6,6v21.2c-.1,4.6,2.3,6.1,6.6,6.1h41.5c4.5,0,6.4-2.1,6.4-6.4C325.2,401.7,325.1,394.9,325.3,388.1Zm-39.4,10.2v5.2c0,2.7-2.1,2.7-3.6,2.2-4.8-1.6-2-5.7-2.2-8.6s-2.5-5.9,2.3-6.4c1.6-.2,3.6-.3,3.5,2.4S285.9,396.5,285.9,398.3Zm15.1-.2v5c.1,1.8-.5,2.9-2.5,2.7s-3.1.5-3.2-1a116.3,116.3,0,0,1,.1-13.2c.1-1.4,2.1-1.1,3.2-.9C303.6,392,299.7,396.2,301,398.1Zm11.6,7.7c-4.7-.5-2.4-4.3-2.3-6.4s-2.6-7,2.2-8.6c1.5-.5,3.7-.6,3.6,2.2v10.4C316.2,406.1,314.4,406,312.6,405.8Z" transform="translate(-249.6 -363.4)" />
</svg>
