<?xml version="1.0" encoding="utf-8"?>
<!-- Generator: Adobe Illustrator 24.2.1, SVG Export Plug-In . SVG Version: 6.00 Build 0)  -->
<svg version="1.1" id="Calque_1" xmlns="http://www.w3.org/2000/svg" xmlns:xlink="http://www.w3.org/1999/xlink" x="0px" y="0px"
	 viewBox="0 0 144 144" style="enable-background:new 0 0 144 144;" xml:space="preserve">
<path d="M72,4.1c-5.4,0-10.5,0.7-15.4,1.8c-2.1,0.5-3.7,2.3-3.9,4.4l-1.1,9.8c-0.4,3.2-2.2,6.1-5,7.7c-2.8,1.6-6.2,1.8-9.2,0.5h0
	l-9-4c-2-0.9-4.3-0.4-5.8,1.2c-7,7.5-12.4,16.6-15.5,26.7c-0.6,2.1,0.1,4.3,1.9,5.6l8,5.9c2.6,1.9,4.2,5,4.2,8.2
	c0,3.3-1.5,6.3-4.2,8.2l-8,5.9c-1.7,1.3-2.5,3.5-1.9,5.6c3.1,10.1,8.5,19.2,15.5,26.7c1.5,1.6,3.8,2,5.8,1.2l9-4
	c3-1.3,6.4-1.1,9.2,0.5c2.8,1.6,4.7,4.5,5,7.7l1.1,9.8c0.2,2.1,1.8,3.9,3.9,4.4c4.9,1.2,10.1,1.8,15.4,1.8s10.5-0.7,15.4-1.8
	c2.1-0.5,3.7-2.3,3.9-4.4l1.1-9.8c0.4-3.2,2.2-6.1,5-7.7c2.8-1.6,6.2-1.8,9.2-0.5l9.1,4c2,0.9,4.3,0.4,5.8-1.2
	c7-7.5,12.4-16.6,15.5-26.7c0.6-2.1-0.1-4.3-1.9-5.6l-8-5.9c-2.6-1.9-4.2-5-4.2-8.2s1.5-6.3,4.2-8.2l8-5.9c1.7-1.3,2.5-3.5,1.9-5.6
	c-3.1-10.1-8.5-19.2-15.5-26.7c-1.5-1.6-3.8-2-5.8-1.2l-9.1,4c-3,1.3-6.4,1.1-9.2-0.5c-2.8-1.6-4.7-4.5-5-7.7l-1.1-9.8
	c-0.2-2.1-1.8-3.9-3.9-4.4C82.5,4.8,77.4,4.1,72,4.1z M72,14.3c3.3,0,6.5,0.6,9.7,1.2l0.6,5.9c0.7,6.4,4.5,12.2,10.1,15.4
	c5.6,3.2,12.4,3.6,18.4,1l5.4-2.4c4.1,5,7.4,10.6,9.7,16.7l-4.8,3.5c-5.2,3.8-8.3,9.9-8.3,16.4c0,6.5,3.1,12.6,8.3,16.4l4.8,3.5
	c-2.3,6.1-5.6,11.7-9.7,16.7l-5.4-2.4c-5.9-2.6-12.8-2.2-18.4,1c-5.6,3.2-9.4,9-10.1,15.4l-0.6,5.9c-3.2,0.6-6.4,1.2-9.7,1.2
	c-3.3,0-6.5-0.6-9.7-1.2l-0.6-5.9c-0.7-6.4-4.5-12.2-10.1-15.4c-5.6-3.2-12.4-3.6-18.4-1l-5.4,2.4c-4.1-5-7.4-10.6-9.7-16.7l4.8-3.5
	c5.2-3.8,8.3-9.9,8.3-16.4c0-6.5-3.1-12.6-8.3-16.4l-4.8-3.5c2.3-6.1,5.6-11.7,9.7-16.7l5.4,2.4c5.9,2.6,12.8,2.2,18.4-1
	c5.6-3.2,9.4-9,10.1-15.4l0.6-5.9C65.5,14.9,68.7,14.3,72,14.3z M72,44.9c-14.9,0-27.1,12.2-27.1,27.1S57.1,99.1,72,99.1
	S99.1,86.9,99.1,72S86.9,44.9,72,44.9z M72,55c9.4,0,17,7.5,17,17s-7.5,17-17,17s-17-7.5-17-17S62.6,55,72,55z"/>
</svg>
